# AST/ASF file generated using VICON BodyLanguage
# -----------------------------------------------
:version 1.10
:name VICON
:units
  mass 1.0
  length 0.45
  angle deg
:documentation
   .ast/.asf automatically generated from VICON data using
   VICON BodyBuilder and BodyLanguage model FoxedUp or BRILLIANT.MOD
:root
   order TX TY TZ RX RY RZ
   axis XYZ
   position 0 0 0  
   orientation 0 0 0 
:bonedata
  begin
     id 1 
     name lhipjoint
     direction 0.602128 -0.715006 0.355257 
     length 2.21237 
     axis 0 0 0  XYZ
  end
  begin
     id 2 
     name lfemur
     direction 0.34202 -0.939693 0  
     length 6.71649  
     axis 0 0 20  XYZ
    dof rx ry rz
    limits (-160.0 20.0)
           (-70.0 70.0)
           (-60.0 70.0)
  end
  begin
     id 3 
     name ltibia
     direction 0.34202 -0.939693 0   
     length 6.97123   
     axis 0 0 20   XYZ
    dof rx
    limits (-10.0 170.0)
  end
  begin
     id 4 
     name lfoot
     direction 0.0655697 -0.180151 0.981451   
     length 1.80924   
     axis -90 7.62852e-016 20   XYZ
    dof rx rz
    limits (-45.0 90.0)
           (-70.0 20.0)
  end
  begin
     id 5 
     name ltoes
     direction 1.53545e-011 -4.21827e-011 1   
     length 0.916331   
     axis -90 7.62852e-016 20   XYZ
    dof rx
    limits (-90.0 20.0)
  end
  begin
     id 6 
     name rhipjoint
     direction -0.625414 -0.698792 0.347201   
     length 2.2637  
     axis 0 0 0  XYZ 
  end
  begin
     id 7 
     name rfemur
     direction -0.34202 -0.939693 0   
     length 7.07595   
     axis 0 0 -20   XYZ
    dof rx ry rz
    limits (-160.0 20.0)
           (-70.0 70.0)
           (-70.0 60.0)
  end
  begin
     id 8 
     name rtibia
     direction -0.34202 -0.939693 0   
     length 7.22924   
     axis 0 0 -20   XYZ
    dof rx
    limits (-10.0 170.0)
 end
 begin
     id 9 
     name rfoot
     direction -0.0766747 -0.210662 0.974547   
     length 1.98482  
     axis -90 -7.62852e-016 -20   XYZ
    dof rx rz
    limits (-45.0 90.0)
           (-20.0 70.0)
  end
  begin
     id 10 
     name rtoes
     direction -1.53532e-011 -4.21867e-011 1   
     length 0.999842   
     axis -90 -7.62852e-016 -20   XYZ
    dof rx
    limits (-90.0 20.0)
  end
  begin
     id 11 
     name lowerback
     direction -0.0224668 0.997354 -0.0691422   
     length 2.09945   
     axis 0 0 0   XYZ
    dof rx ry rz
    limits (-20.0 45.0)
           (-30.0 30.0)
           (-30.0 30.0)
  end
  begin
     id 12 
     name upperback
     direction 0.0134698 0.998451 -0.0539888   
     length 2.09758   
     axis 0 0 0   XYZ
    dof rx ry rz
    limits (-20.0 45.0)
           (-30.0 30.0)
           (-30.0 30.0)
  end
  begin
     id 13 
     name thorax
     direction 0.0241905 0.99948 -0.0213333   
     length 2.10428   
     axis 0 0 0   XYZ
    dof rx ry rz
    limits (-20.0 45.0)
           (-30.0 30.0)
           (-30.0 30.0)
  end
  begin
     id 14 
     name lowerneck
     direction -0.00866847 0.995978 0.0891737   
     length 1.3959   
     axis 0 0 0   XYZ
    dof rx ry rz
    limits (-20.0 45.0)
           (-30.0 30.0)
           (-30.0 30.0)
  end
  begin
     id 15 
     name upperneck
     direction 0.0680679 0.992203 0.104404   
     length 1.39452   
     axis 0 0 0   XYZ
    dof rx ry rz
    limits (-20.0 45.0)
           (-30.0 30.0)
           (-30.0 30.0)
  end
  begin
     id 16
     name head
     direction 0.0242216 0.999358 0.0264054  
     length 1.40433  
     axis 0 0 0   XYZ
    dof rx ry rz
    limits (-20.0 45.0)
           (-30.0 30.0)
           (-30.0 30.0)
  end
  begin
     id 17 
     name lclavicle
     direction 0.929368 0.362991 -0.0671771  
     length 3.04887  
     axis 0 0 0   XYZ
    dof ry rz
    limits (-20.0 10.0)
           (0.0 20.0)
  end
  begin
     id 18 
     name lhumerus
     direction 1 -4.48967e-011 -7.13741e-028   
     length 4.77195   
     axis -180 -30 -90   XYZ
    dof rx ry rz
    limits (-60.0 90.0)
           (-90.0 90.0)
           (-90.0 90.0)
  end
  begin
     id 19
     name lradius
     direction 1 -4.48977e-011 3.60404e-027   
     length 2.98444   
     axis -180 -30 -90   XYZ
    dof rx
    limits (-10.0 170.0)
  end
  begin
     id 20
     name lwrist
     direction 1 -4.48997e-011 7.54877e-027   
     length 1.49222   
     axis -7.18178e-015 90 90   XYZ
    dof ry
    limits (-180.0 0.0)
 end
  begin
     id 21 
     name lhand
     direction 1 -4.489e-011 1.51105e-026   
     length 0.992285   
     axis -9.63605e-015 90 90   XYZ
    dof rx rz
    limits (-90.0 90.0)
           (-45.0 45.0)
  end
  begin
     id 22 
     name lfingers
     direction 1 -4.48998e-011 3.01948e-026   
     length 0.800006   
     axis -1.92718e-014 90 90   XYZ
    dof rx
    limits (0.0 90.0)
  end
  begin
     id 23
     name lthumb
     direction 0.707107 -6.34881e-011 0.707107   
     length 1.14865   
     axis -90 45 -3.53137e-014   XYZ
    dof rx rz
    limits (-45.0 45.0)
           (-45.0 45.0)
  end
  begin
     id 24 
     name rclavicle
     direction -0.945672 0.324529 0.0196374   
     length 3.4236  
     axis 0 0 0   XYZ 
    dof ry rz
    limits (-10.0 20.0)
           (-20.0 0.0)
  end
  begin
     id 25 
     name rhumerus
     direction -1 -4.4896e-011 1.02757e-029  
     length 4.62052   
     axis -180 30 90   XYZ
    dof rx ry rz
    limits (-90.0 60.0)
           (-90.0 90.0)
           (-90.0 90.0)
  end
  begin
     id 26 
     name rradius
     direction -1 -4.48982e-011 3.85962e-027   
     length 2.95332   
     axis -180 30 90   XYZ
    dof rx
    limits (-10.0 170.0)
  end
  begin
     id 27 
     name rwrist
     direction -1 -4.48961e-011 7.55118e-027   
     length 1.47666   
     axis -7.18178e-015 -90 -90   XYZ
    dof ry
    limits (-180.0 0.0)
  end
  begin
     id 28
     name rhand
     direction -1 -4.48984e-011 1.50994e-026   
     length 0.990956   
     axis -9.63605e-015 -90 -90   XYZ
    dof rx rz
    limits (-90.0 90.0)
           (-45.0 45.0)
  end
  begin
     id 29
     name rfingers
     direction -1 -4.4892e-011 3.02158e-026   
     length 0.798934   
     axis -1.92718e-014 -90 -90   XYZ
    dof rx
    limits (0.0 90.0)
  end
  begin
     id 30
     name rthumb
     direction -0.707107 -6.34916e-011 0.707107   
     length 1.14711   
     axis -90 -45 3.53137e-014   XYZ
    dof rx rz
    limits (-45.0 45.0)
           (-45.0 45.0)
  end
:hierarchy
  begin
    root lhipjoint rhipjoint lowerback
    lhipjoint lfemur
    lfemur ltibia
    ltibia lfoot
    lfoot ltoes
    rhipjoint rfemur
    rfemur rtibia
    rtibia rfoot
    rfoot rtoes
    lowerback upperback
    upperback thorax
    thorax lowerneck lclavicle rclavicle
    lowerneck upperneck
    upperneck head
    lclavicle lhumerus
    lhumerus lradius
    lradius lwrist
    lwrist lhand lthumb
    lhand lfingers
    rclavicle rhumerus
    rhumerus rradius
    rradius rwrist
    rwrist rhand rthumb
    rhand rfingers
  end

#!OML:ASF H:\ManfredObstacles\Project 1\Capture day 1\Session 1\Male.ASF
:FULLY-SPECIFIED
:DEGREES
452
root -13.0152 16.8669 -14.4055 -162.145 -69.5671 -183.311
lowerback -12.8408 -3.36989 -3.93158
upperback 0.810145 -4.03891 1.6673
thorax 8.48711 -2.1835 3.18337
lowerneck -2.72879 -0.140943 -6.67994
upperneck -5.95911 0.173295 11.4539
head -1.30247 -0.0336445 4.54797
rclavicle -4.49005e-014 -1.64991e-014
rhumerus -31.7314 -21.7247 -78.6733
rradius 24.7266
rwrist 34.0489
rhand -0.772851 -4.4016
rfingers 7.12502
rthumb 24.8499 -32.8066
lclavicle -4.49005e-014 -1.64991e-014
lhumerus -24.712 25.6248 83.2184
lradius 14.754
lwrist -51.4029
lhand -8.36036 5.63059
lfingers 7.12502
lthumb 17.5621 34.8574
rfemur -32.0211 -5.6407 20.0978
rtibia 26.036
rfoot -8.00973 11.0256
rtoes 33.4259
lfemur 6.86125 -2.20832 -13.6181
ltibia 4.53722
lfoot 22.7708 -11.7998
ltoes -14.5794
453
root -13.0083 16.8718 -14.4027 -161.796 -69.5306 -183.479
lowerback -12.8665 -3.55482 -4.05223
upperback 0.750545 -4.27477 1.75541
thorax 8.47585 -2.30489 3.29577
lowerneck -2.79492 0.0137338 -6.62357
upperneck -5.98505 0.377853 11.226
head -1.31926 0.0725341 4.46804
rclavicle -4.13472e-014 1.53064e-014
rhumerus -31.5763 -21.3052 -78.8291
rradius 24.775
rwrist 33.6661
rhand -0.676374 -4.48539
rfingers 7.12502
rthumb 24.9424 -32.8776
lclavicle -4.13472e-014 1.53064e-014
lhumerus -24.749 8.35888 88.4964
lradius 17.1438
lwrist -33.0701
lhand -8.09402 8.35641
lfingers 7.12502
lthumb 17.8184 37.5601
rfemur -32.2818 -5.66904 20.0634
rtibia 26.0523
rfoot -7.88627 11.1011
rtoes 33.4377
lfemur 5.92432 -2.06969 -13.8292
ltibia 5.88131
lfoot 22.5456 -12.2658
ltoes -14.6999
454
root -12.9994 16.8771 -14.4016 -161.345 -69.6447 -183.723
lowerback -12.9013 -3.70448 -4.08654
upperback 0.678297 -4.47134 1.78176
thorax 8.44117 -2.40099 3.30138
lowerneck -2.88423 0.0861741 -6.57803
upperneck -6.00599 0.474035 11.0918
head -1.32001 0.123419 4.41905
rclavicle -6.36608e-014 -1.07344e-014
rhumerus -31.4884 -21.1171 -78.9387
rradius 24.826
rwrist 33.2541
rhand -0.681005 -4.6512
rfingers 7.12502
rthumb 24.9379 -33.0441
lclavicle -6.36608e-014 -1.07344e-014
lhumerus -24.9658 9.92634 87.7599
lradius 16.6438
lwrist -34.5451
lhand -8.19414 7.94548
lfingers 7.12502
lthumb 17.722 37.1579
rfemur -32.5141 -5.77119 20.0318
rtibia 25.9726
rfoot -7.77707 11.0599
rtoes 33.6839
lfemur 4.92879 -2.08096 -14.0442
ltibia 7.20043
lfoot 22.1167 -12.9334
ltoes -16.5101
455
root -12.9919 16.8791 -14.4065 -161.447 -69.7417 -183.387
lowerback -12.9901 -3.82057 -4.03886
upperback 0.636153 -4.64156 1.8966
thorax 8.4688 -2.48462 3.35735
lowerneck -2.96529 0.12512 -6.54042
upperneck -6.10422 0.528314 10.9528
head -1.34082 0.151265 4.3706
rclavicle -1.12661e-013 1.41137e-014
rhumerus -31.2981 -20.9695 -78.9604
rradius 24.695
rwrist 33.2547
rhand -0.820747 -4.66207
rfingers 7.12502
rthumb 24.804 -33.0734
lclavicle -1.12661e-013 1.41137e-014
lhumerus -25.2447 11.0268 87.1878
lradius 16.3571
lwrist -35.5919
lhand -8.13301 7.7932
lfingers 7.12502
lthumb 17.7808 37.0003
rfemur -32.7039 -5.60778 20.1747
rtibia 25.8772
rfoot -7.81447 10.7904
rtoes 34.1122
lfemur 4.10767 -2.02427 -13.992
ltibia 8.23053
lfoot 21.9443 -13.2405
ltoes -16.8187
456
root -12.99 16.8771 -14.412 -161.455 -69.7062 -183.275
lowerback -13.0044 -3.89886 -4.07079
upperback 0.603048 -4.74667 1.95863
thorax 8.45975 -2.53834 3.4192
lowerneck -2.93647 0.131089 -6.5992
upperneck -6.23565 0.542276 10.9391
head -1.38547 0.155496 4.37702
rclavicle -2.43014e-014 1.05356e-014
rhumerus -31.2185 -20.9032 -78.9503
rradius 24.5204
rwrist 33.5353
rhand -1.06333 -4.66056
rfingers 7.12502
rthumb 24.5715 -33.1037
lclavicle -2.43014e-014 1.05356e-014
lhumerus -25.3254 12.9417 86.4413
lradius 15.7228
lwrist -37.4009
lhand -8.11699 7.61301
lfingers 7.12502
lthumb 17.7963 36.8187
rfemur -32.7701 -5.42232 20.2012
rtibia 25.8114
rfoot -7.81318 10.6315
rtoes 34.3471
lfemur 3.62411 -1.89024 -14.059
ltibia 8.93297
lfoot 21.8793 -13.4554
ltoes -16.9393
457
root -12.9955 16.8765 -14.4137 -160.865 -69.4563 -183.889
lowerback -13.0155 -3.85929 -4.20271
upperback 0.587382 -4.6618 1.83241
thorax 8.44039 -2.49872 3.37634
lowerneck -2.91583 0.0773088 -6.74621
upperneck -6.32782 0.48034 11.0694
head -1.40994 0.122343 4.44262
rclavicle 9.88457e-014 -2.48481e-014
rhumerus -31.2997 -21.1244 -78.8741
rradius 24.3556
rwrist 34.0541
rhand -1.33089 -4.65388
rfingers 7.12502
rthumb 24.315 -33.1317
lclavicle 9.88457e-014 -2.48481e-014
lhumerus -25.5833 14.075 85.8253
lradius 15.3112
lwrist -38.6199
lhand -8.10837 7.54387
lfingers 7.12502
lthumb 17.8046 36.7488
rfemur -32.743 -5.41498 19.9449
rtibia 25.7141
rfoot -7.64076 10.7665
rtoes 34.4396
lfemur 3.40851 -1.65276 -14.4869
ltibia 9.44347
lfoot 21.7366 -13.7062
ltoes -17.4897
458
root -13.0009 16.8783 -14.4151 -160.354 -69.5445 -184.28
lowerback -13.0576 -3.88939 -4.12262
upperback 0.483593 -4.70422 1.71122
thorax 8.33767 -2.50957 3.19317
lowerneck -2.83256 0.0456268 -6.6992
upperneck -6.40843 0.43868 11.1272
head -1.44309 0.0945865 4.45314
rclavicle -1.01927e-013 2.88238e-014
rhumerus -31.4199 -21.3208 -78.8241
rradius 24.1234
rwrist 34.6234
rhand -1.62008 -4.61781
rfingers 7.12502
rthumb 24.0377 -33.1325
lclavicle -1.01927e-013 2.88238e-014
lhumerus -25.8748 15.4966 85.0287
lradius 14.8532
lwrist -40.2954
lhand -8.05315 7.58799
lfingers 7.12502
lthumb 17.8577 36.7881
rfemur -32.758 -5.6156 19.8396
rtibia 25.4171
rfoot -7.40573 10.7681
rtoes 34.5436
lfemur 4.12132 -1.74593 -14.3701
ltibia 7.63092
lfoot 22.76 -13.3265
ltoes -17.4667
459
root -13.011 16.8844 -14.4077 -160.324 -70.0846 -184.252
lowerback -12.9551 -3.99267 -3.63581
upperback 0.390306 -4.91242 1.59661
thorax 8.14374 -2.58346 2.76237
lowerneck -2.54486 0.0277371 -6.30566
upperneck -6.645 0.404636 11.0113
head -1.55675 0.0560249 4.35295
rclavicle -2.33572e-014 1.2921e-015
rhumerus -31.5135 -21.3649 -78.9056
rradius 23.9366
rwrist 34.6554
rhand -1.83846 -4.64313
rfingers 7.12502
rthumb 23.8283 -33.1853
lclavicle -2.33572e-014 1.2921e-015
lhumerus -26.3632 16.6642 84.1759
lradius 14.5952
lwrist -41.7236
lhand -8.07074 7.5436
lfingers 7.12502
lthumb 17.8408 36.7452
rfemur -32.6409 -6.01934 19.8883
rtibia 25.1238
rfoot -7.38487 10.5912
rtoes 34.3075
lfemur 5.02644 -2.23216 -13.9342
ltibia 5.33792
lfoot 24.0785 -12.8401
ltoes -17.7568
460
root -13.0558 16.8945 -14.4698 -166.282 -67.5917 -180.856
lowerback -10.9583 -3.00036 -3.43343
upperback 1.31942 -3.67167 1.65999
thorax 7.89243 -1.98303 3.04144
lowerneck -2.37596 0.0208316 -5.99815
upperneck -6.82022 0.388595 10.8769
head -1.63487 0.0335565 4.26132
rclavicle 5.479e-014 2.00773e-014
rhumerus -31.5311 -21.2398 -78.9724
rradius 23.793
rwrist 34.4019
rhand -1.98173 -4.67191
rfingers 7.12502
rthumb 23.6909 -33.2319
lclavicle 5.479e-014 2.00773e-014
lhumerus -26.5741 18.0149 83.4287
lradius 14.1485
lwrist -43.2098
lhand -8.11695 7.43141
lfingers 7.12502
lthumb 17.7963 36.6371
rfemur -29.3144 -5.89175 21.4458
rtibia 24.7836
rfoot -6.63913 13.358
rtoes 35.2968
lfemur 11.6174 -0.046201 -12.2114
ltibia 2.22639e-014
lfoot 26.018 -11.8989
ltoes -17.3486
461
root -13.045 16.8981 -14.4822 -165.729 -68.0533 -181.166
lowerback -10.9679 -3.15606 -3.58478
upperback 1.21828 -3.86265 1.69918
thorax 7.81916 -2.08141 3.13459
lowerneck -2.57286 -0.037168 -6.07115
upperneck -6.78973 0.314903 10.9023
head -1.58697 0.00317305 4.28161
rclavicle -4.5472e-014 -1.44119e-014
rhumerus -31.4919 -21.3875 -78.8808
rradius 23.6868
rwrist 34.4877
rhand -2.07469 -4.69014
rfingers 7.12502
rthumb 23.6018 -33.2617
lclavicle -4.5472e-014 -1.44119e-014
lhumerus -26.6957 18.1734 83.2418
lradius 14.0301
lwrist -43.4701
lhand -7.97419 7.55396
lfingers 7.12502
lthumb 17.9337 36.7471
rfemur -29.4454 -5.63836 21.2714
rtibia 24.5331
rfoot -6.7484 12.6402
rtoes 35.3904
lfemur 11.1713 -0.419 -12.1674
ltibia 1.59028e-014
lfoot 26.4393 -11.6833
ltoes -16.5955
462
root -13.0489 16.8971 -14.4988 -165.615 -68.1008 -181.204
lowerback -10.999 -3.09942 -3.59135
upperback 1.20249 -3.78423 1.68602
thorax 7.81244 -2.04279 3.13793
lowerneck -2.77045 -0.13083 -6.07966
upperneck -6.77043 0.191536 10.883
head -1.53808 -0.0528076 4.27749
rclavicle 3.50358e-015 1.49089e-015
rhumerus -31.6983 -22.0315 -78.6426
rradius 23.7999
rwrist 34.8171
rhand -1.93861 -4.74747
rfingers 7.12502
rthumb 23.7323 -33.3021
lclavicle 3.50358e-015 1.49089e-015
lhumerus -26.7645 18.8855 82.8726
lradius 13.7761
lwrist -44.4338
lhand -7.90379 7.68566
lfingers 7.12502
lthumb 18.0014 36.8726
rfemur -29.4104 -5.66143 21.3162
rtibia 24.3367
rfoot -6.62719 12.5814
rtoes 35.5229
lfemur 11.0929 -0.399148 -12.1502
ltibia 9.54166e-015
lfoot 26.4583 -11.9951
ltoes -17.8173
463
root -13.0584 16.8974 -14.5142 -165.331 -68.1237 -181.451
lowerback -11.0516 -3.17288 -3.76192
upperback 1.20382 -3.86266 1.75042
thorax 7.86817 -2.09099 3.28537
lowerneck -2.90562 -0.0976212 -6.21275
upperneck -6.8203 0.243998 10.8776
head -1.5351 -0.0216486 4.29838
rclavicle -6.5922e-014 3.33958e-014
rhumerus -31.7203 -22.2338 -78.4828
rradius 23.8964
rwrist 34.9983
rhand -1.68066 -4.8696
rfingers 7.12502
rthumb 23.9797 -33.3919
lclavicle -6.5922e-014 3.33958e-014
lhumerus -26.9423 20.6968 82.221
lradius 13.4709
lwrist -46.0437
lhand -7.96033 7.70575
lfingers 7.12502
lthumb 17.947 36.8977
rfemur -29.4458 -5.95128 21.3372
rtibia 24.3802
rfoot -6.67383 12.8274
rtoes 35.296
lfemur 11.0907 -0.382373 -12.2071
ltibia -1.27222e-014
lfoot 26.5489 -11.9296
ltoes -17.6179
